<svg xmlns="http://www.w3.org/2000/svg" width="24" height="24" viewBox="0 0 24 24">
    <g fill="none" fill-rule="evenodd" opacity=".54">
        <path d="M-4-4h32v32H-4z"/>
        <path d="M0 0h24v24H0z"/>
        <g fill="#997B3D">
            <path d="M8 0v4.411h.727V.727h14.451v8.38h-3.494l-3.368 3.508V9.107h-2.387v.727h1.66v4.588l4.405-4.588h3.912V0z"/>
            <path d="M18 6.012h1.012V5H18zM16 6.012h1.012V5H16zM13 6.012h1.012V5H13zM.725 23.189h14.453v-2.166c-.194-.306-2.528-1.574-5.337-2.698a.364.364 0 0 1-.229-.338v-2.023c0-.152.094-.286.235-.34-.002 0 .696-.353.696-2.19 0-.2.163-.363.364-.363.095-.019.305-.429.261-.886-.018-.187-.078-.411-.269-.411a.363.363 0 0 1-.363-.363c0-.129.054-.255.144-.463.193-.447.516-1.195.32-1.979-.213-.854-1.522-1.242-2.648-1.242h-.001c-1.125 0-2.433.389-2.646 1.242a.358.358 0 0 1-.426.268c-.364-.073-.55-.034-.597.025-.192.239.253 1.238.399 1.565.136.306.199.446.199.584 0 .2-.163.363-.364.363-.289 0-.395.388-.395.648 0 .261.106.649.395.649.201 0 .364.163.364.363 0 1.843.771 2.187.778 2.19a.378.378 0 0 1 .234.34v2.023a.365.365 0 0 1-.228.338C3.254 19.448.921 20.717.712 21.101l.013 2.088zm14.816.727H.363A.364.364 0 0 1 0 23.553v-2.53c0-.941 4.233-2.738 5.565-3.281v-1.565c-.349-.242-.938-.877-1.006-2.443-.459-.17-.765-.67-.765-1.312 0-.582.252-1.047.642-1.257l-.019-.041c-.308-.69-.772-1.731-.302-2.318.207-.257.544-.371.996-.327C5.591 7.46 7.034 7 8.351 7h.001c1.446 0 3.043.554 3.354 1.793.244.981-.113 1.871-.331 2.381.327.195.526.603.526 1.133 0 .579-.232 1.173-.635 1.397-.056 1.568-.6 2.214-.926 2.462v1.576c1.331.543 5.565 2.341 5.565 3.281v2.53c0 .2-.163.363-.364.363z"/>
        </g>
    </g>
</svg>