<svg xmlns="http://www.w3.org/2000/svg" width="124" height="155" viewBox="0 0 124 155">
    <g fill="none" fill-rule="nonzero">
        <path fill="#25AFE5" d="M1.58 87.48v9.653h37.652v-9.05z"/>
        <path fill="#FDD835" d="M21.356 97.134l13.473 17.737 7.339-13.514-3.668-4.224z"/>
        <path fill="#25AFE5" d="M65.466 8.15l6.442-6.665 7.95 7.401-7.196 6.556z"/>
        <path fill="#FDD835" d="M20.377 48.289l-9.696 10.46L21.941 69.8l9.763-9.945L20.377 48.29zm21.037-20.63L38.5 30.65l1.133 5.413 3.562 3.107 8.337 5.376 9.228 8.322 5.019 6.33 7.447 13.465 4.614 12.2 1.663 12.442-.611 9.13 3.319 4.766 4.613 1.231 4.928-2.413 2.114-6.574-.485-8.968-1.943-13.735s-1.356-3.319-2.995-9.793c-1.354-5.35-8.943-18.877-16.27-26.726-7.326-7.85-10.199-9.857-10.199-9.857L51.856 27.66l-3.602-1.824-3.539-.078-3.301 1.902z"/>
        <path fill="#F07672" d="M54.275 5.515l-34.6 34.058-.957 3.816 1.12 4.355 12.756 12.904 3.903 1.822 3.536-.954 2.868-1.717 11.948-12.353-3.25-2.244-4.11-3.625-5.162-3.465-2.963-1.305-1.242-3.626 2.676-5.628 3.154-1.813 4.302.096L65.17 37.284l10.644-11.067 1.59-3.244-2.771-5.533L62.113 4.752l-3.25-.954-4.588 1.717zM26.673 144.848h70.352v-43.902h-3.254v6.048l-2.02 3.024-2.132 2.413h-6.283l-3.204-3.31-1.509-3.366.45-4.809-36.097.545-7.514 12.281L26 130.177l.673 14.671z"/>
        <path fill="#455A64" d="M65.569 38.112a1.018 1.018 0 1 1-.722-1.74l9.546-9.528a5.681 5.681 0 0 0 0-8.036L62.3 6.738a5.66 5.66 0 0 0-4.025-1.664 5.66 5.66 0 0 0-4.026 1.665l-7.791 7.776a1.022 1.022 0 0 1-1.444 0 1.018 1.018 0 0 1 0-1.44l7.792-7.778a7.69 7.69 0 0 1 5.469-2.261 7.69 7.69 0 0 1 5.469 2.261l12.093 12.07c3.016 3.01 3.016 7.908 0 10.918l-9.546 9.529a1.02 1.02 0 0 1-.722.298M37.368 63.481a7.718 7.718 0 0 1-5.47-2.258l-12.092-12.07a7.662 7.662 0 0 1-2.265-5.459 7.663 7.663 0 0 1 2.265-5.459l23.123-23.08a1.022 1.022 0 0 1 1.718.453c.093.355-.011.732-.274.989l-23.124 23.08a5.64 5.64 0 0 0-1.667 4.017c0 1.518.592 2.945 1.667 4.018l12.093 12.07a5.707 5.707 0 0 0 8.051 0l12.55-12.526a1.022 1.022 0 0 1 1.708.457c.095.351-.006.726-.264.984l-12.55 12.526a7.717 7.717 0 0 1-5.47 2.258"/>
        <path fill="#455A64" d="M21.852 70.947c-.27 0-.53-.107-.722-.298L9.732 59.272a1.018 1.018 0 0 1 0-1.44l10.106-10.088a1.022 1.022 0 0 1 1.444 0 1.018 1.018 0 0 1 0 1.442l-9.385 9.366 9.955 9.935 9.298-9.28c.4-.39 1.04-.386 1.435.008.396.395.4 1.034.009 1.433l-10.02 10.001a1.02 1.02 0 0 1-.722.299m51.091-54.814a1.018 1.018 0 1 1-.722-1.74l5.662-5.65-6.13-6.118-5.788 5.778a1.021 1.021 0 0 1-1.743-.72c0-.27.108-.53.3-.721l6.51-6.499a1.023 1.023 0 0 1 1.444 0l7.573 7.56a1.018 1.018 0 0 1 0 1.44l-6.384 6.372a1.02 1.02 0 0 1-.722.298M97.26 145.851H36.718a1.02 1.02 0 0 1 0-2.038H96.24v-41.726h-1.807a1.021 1.021 0 0 1-.9-1.534c.187-.318.531-.51.9-.504h2.828a1.02 1.02 0 0 1 1.02 1.019v43.764a1.02 1.02 0 0 1-1.02 1.02m-65.963 0h-5.126a1.02 1.02 0 0 1-1.02-1.02V130.34c0-.17.042-.338.123-.487l15.95-29.271c.178-.328.522-.532.896-.532h36.99a1.02 1.02 0 1 1 0 2.037H42.73l-15.536 28.512v13.215h4.105a1.021 1.021 0 0 1 .9 1.534c-.187.318-.53.51-.9.504"/>
        <path fill="#455A64" d="M86.116 113.495a8.38 8.38 0 0 1-.607-.022c-4.514-.33-7.917-4.263-7.587-8.769.121-1.655.182-3.34.182-5.006 0-12.519-3.455-24.74-9.993-35.34A67.917 67.917 0 0 0 42.003 39.95a8.142 8.142 0 0 1-4.01-4.828 8.125 8.125 0 0 1 .586-6.243 8.163 8.163 0 0 1 4.86-4.014 8.122 8.122 0 0 1 6.236.598A85.62 85.62 0 0 1 76.26 47.519c.346.44.271 1.077-.166 1.426a1.022 1.022 0 0 1-1.43-.154 83.602 83.602 0 0 0-11.862-12.075 83.722 83.722 0 0 0-14.09-9.455 6.092 6.092 0 0 0-4.675-.447 6.134 6.134 0 0 0-3.653 3.017 6.103 6.103 0 0 0-.44 4.69 6.115 6.115 0 0 0 3.012 3.627A69.955 69.955 0 0 1 69.85 63.289c6.736 10.923 10.297 23.513 10.297 36.41 0 1.715-.064 3.45-.189 5.154a6.108 6.108 0 0 0 1.483 4.472 6.13 6.13 0 0 0 4.675 2.132c3.21 0 5.908-2.506 6.142-5.706.147-2.001.221-4.038.221-6.053 0-10.236-1.86-20.21-5.527-29.644a1.022 1.022 0 0 1 1.904-.737c3.76 9.67 5.665 19.892 5.665 30.381 0 2.065-.076 4.151-.226 6.202a8.157 8.157 0 0 1-2.61 5.414 8.184 8.184 0 0 1-5.57 2.181"/>
        <path fill="#455A64" d="M84.602 63.32c-.385 0-.737-.216-.911-.558a79.953 79.953 0 0 0-4.026-7.014 1.018 1.018 0 0 1 .308-1.408 1.022 1.022 0 0 1 1.41.307 82.096 82.096 0 0 1 4.13 7.192 1.018 1.018 0 0 1-.91 1.48zM2.325 96.092h36.103V88.22H2.325v7.873zm36.144 2.039H2.284a2.002 2.002 0 0 1-2.001-1.998v-7.955a2.001 2.001 0 0 1 2.001-1.997H38.47c1.105 0 2 .894 2.001 1.997v7.955a2.001 2.001 0 0 1-2 1.998z"/>
        <path fill="#455A64" d="M42.016 102.167a1.02 1.02 0 0 1-.819-.409l-3.024-4.036a1.018 1.018 0 0 1 .214-1.415 1.022 1.022 0 0 1 1.421.194l3.024 4.037a1.017 1.017 0 0 1-.816 1.629zm-7.358 13.25a1.02 1.02 0 0 1-.806-.392L20.357 97.738a1.018 1.018 0 0 1 .189-1.417 1.023 1.023 0 0 1 1.422.164l13.494 17.287a1.018 1.018 0 0 1-.804 1.646zm21.734-.546a2.442 2.442 0 0 1-2.444 2.439 2.442 2.442 0 0 1-2.443-2.44 2.442 2.442 0 0 1 2.444-2.439 2.442 2.442 0 0 1 2.444 2.44zm15.536 9.1c-.378 5.408-4.97 9.657-10.523 9.493-5.199-.155-9.513-4.26-9.898-9.438-.002-.018-.002-.037-.002-.055h20.423zm0-9.1a2.442 2.442 0 0 1-2.444 2.439 2.442 2.442 0 0 1-2.444-2.44 2.442 2.442 0 0 1 2.444-2.44 2.442 2.442 0 0 1 2.444 2.44zM48.914 32.695a2.76 2.76 0 0 1-1.374 2.415c-.86.5-1.922.5-2.782 0a2.76 2.76 0 0 1 1.391-5.146 2.763 2.763 0 0 1 2.765 2.73v.001zm40.15 72.815a2.76 2.76 0 0 1-1.375 2.415c-.86.5-1.922.5-2.782 0a2.76 2.76 0 0 1 1.391-5.145 2.763 2.763 0 0 1 2.765 2.73z"/>
        <path fill="#455A64" d="M40.503 38.554c6.356 4.932 9.93 13.432 9.93 13.432l4.416-4.54-4.31-3.645-10.036-5.247zm-1.271 59.422l-14.74 3.447-3.136-4.29 17.876.843zM86.154 98.818a2.449 2.449 0 0 1-2.442-2.271 78.428 78.428 0 0 0-.994-7.933 2.446 2.446 0 0 1 1.992-2.823 2.45 2.45 0 0 1 2.835 1.978c.506 2.883.862 5.72 1.055 8.43a2.443 2.443 0 0 1-.652 1.841 2.452 2.452 0 0 1-1.794.778m-2.78-16.047a2.45 2.45 0 0 1-2.364-1.807c-2.023-7.452-4.986-14.413-8.805-20.687C67.347 52.293 61.1 45.445 53.64 39.923a2.443 2.443 0 0 1-.483-3.402 2.454 2.454 0 0 1 3.402-.527c7.973 5.9 14.646 13.216 19.836 21.743 4.057 6.668 7.202 14.052 9.346 21.948a2.441 2.441 0 0 1-1.724 3c-.214.058-.43.086-.642.086" opacity=".1"/>
        <path fill="#F07672" d="M51.865 126.035c-.314-1.56.708-2.064 1.669-2.064h15.59c2.285 0 2.736 1.185 2.443 2.064-.293.88 1.442-1.031 1.442-1.031l-.548-2.107-5.421-.675-16.112.456-.458 1.566 1.395 1.791z"/>
        <path fill="#FFF" fill-opacity=".3" d="M15.83 59.754a1.426 1.426 0 0 1-.115-2.01l3.878-4.342a1.432 1.432 0 0 1 2.014-.115c.585.524.637 1.422.115 2.01l-3.878 4.342a1.432 1.432 0 0 1-2.014.115m5.393-16.108a1.426 1.426 0 0 1-.014-2.013l28.827-29.18a1.432 1.432 0 0 1 2.016-.014c.56.553.566 1.452.015 2.013L23.24 43.632a1.432 1.432 0 0 1-2.017.014m32.725-32.52a1.426 1.426 0 0 1-.014-2.012l1.473-1.491a1.432 1.432 0 0 1 2.017-.014c.558.553.565 1.452.014 2.013l-1.473 1.49a1.432 1.432 0 0 1-2.017.015M9.794 91.559h-4.66a.889.889 0 0 1-.887-.886.889.889 0 0 1 .888-.885h4.659a.89.89 0 0 1 .887.885.89.89 0 0 1-.887.886m5.548 0h-.131a.889.889 0 0 1-.888-.886.889.889 0 0 1 .888-.885h.13a.89.89 0 0 1 .888.885.89.89 0 0 1-.887.886"/>
        <path fill="#455A64" d="M105.741 138.836h18.138v-1.065h-18.138v1.065zm0 7.052h9.07v-1.065h-9.07v1.065zM.364 136.836h18.138v-1.064H.364v1.064zm9.07 7.052h9.068v-1.065H9.433v1.065zm37.797 11.039h31.13v-1.065H47.23v1.065zm37.919 0h4.478v-1.065H85.15v1.065z"/>
    </g>
</svg>