<svg xmlns="http://www.w3.org/2000/svg" id="Layer_1" width="12" height="16" data-name="Layer 1"><defs><clipPath id="clip-path"><path d="M12 13.58a.9.9 0 0 0-.27-.65l-2.47-2.48A5.07 5.07 0 1 0 8 11.76l2.48 2.47a.9.9 0 0 0 .65.27.93.93 0 0 0 .87-.92m-3.69-6a3.23 3.23 0 1 1-3.23-3.23 3.23 3.23 0 0 1 3.23 3.23" style="fill:none;clip-rule:evenodd"/></clipPath><clipPath id="clip-path-2"><path d="M-8-5.5h28v32H-8z" class="cls-2"/></clipPath><style>.cls-2{fill:none}</style></defs><g style="isolation:isolate"><g style="clip-path:url(#clip-path)"><g style="clip-path:url(#clip-path-2)"><path d="M-5-2.5h22v22H-5z" style="fill:#aaa"/></g></g><path d="M0 1.5h12v13H0z" class="cls-2"/></g></svg>